<?xml version="1.0" encoding="UTF-8"?>
<svg width="32" height="32" viewBox="0 0 32 32" fill="none" xmlns="http://www.w3.org/2000/svg">
  <!-- 正方体的前面 -->
  <path d="M8 8H24C25.1046 8 26 8.89543 26 10V22C26 23.1046 25.1046 24 24 24H8C6.89543 24 6 23.1046 6 22V10C6 8.89543 6.89543 8 8 8Z" 
        fill="currentColor" 
        opacity="0.05"/>
  
  <!-- 正方体的右侧面 -->
  <path d="M24 8L28 6L28 20L24 22V8Z" 
        fill="currentColor" 
        opacity="0.1"/>
  
  <!-- 正方体的顶面 -->
  <path d="M8 8L12 6L28 6L24 8H8Z" 
        fill="currentColor" 
        opacity="0.15"/>
  
  <!-- 前面的边框 -->
  <path d="M8 8H24C25.1046 8 26 8.89543 26 10V22C26 23.1046 25.1046 24 24 24H8C6.89543 24 6 23.1046 6 22V10C6 8.89543 6.89543 8 8 8Z" 
        stroke="currentColor" 
        stroke-width="1"/>
  
  <!-- 右侧面的边框 -->
  <path d="M24 8L28 6L28 20L24 22" 
        stroke="currentColor" 
        stroke-width="1"/>
  
  <!-- 顶面的边框 -->
  <path d="M8 8L12 6L28 6" 
        stroke="currentColor" 
        stroke-width="1"/>
  
  <!-- 内部装饰线条 -->
  <path d="M12 12H20M12 16H20M12 20H16" 
        stroke="#00A8FF" 
        stroke-width="1" 
        stroke-linecap="round"/>
  
  <!-- 内部装饰线条的阴影 -->
  <path d="M12 12H20M12 16H20M12 20H16" 
        stroke="currentColor" 
        stroke-width="0.8" 
        stroke-linecap="round"
        opacity="0.2"/>
  
  <!-- 3D 效果 - 前面的高光 -->
  <path d="M8 8H24C25.1046 8 26 8.89543 26 10V22C26 23.1046 25.1046 24 24 24H8C6.89543 24 6 23.1046 6 22V10C6 8.89543 6.89543 8 8 8Z" 
        stroke="currentColor" 
        stroke-width="0.5"
        opacity="0.1"/>
  
  <!-- 3D 效果 - 右侧面的高光 -->
  <path d="M24 8L28 6L28 20L24 22" 
        stroke="currentColor" 
        stroke-width="0.5"
        opacity="0.1"/>
  
  <!-- 3D 效果 - 顶面的高光 -->
  <path d="M8 8L12 6L28 6" 
        stroke="currentColor" 
        stroke-width="0.5"
        opacity="0.1"/>
</svg> 