<?xml version="1.0" encoding="UTF-8"?>
<svg width="32" height="32" viewBox="0 0 32 32" xmlns="http://www.w3.org/2000/svg">
  <defs>
    <!-- 渐变 -->
    <linearGradient id="blackGradient" x1="0" y1="0" x2="1" y2="1">
      <stop offset="0%" stop-color="#111"/>
      <stop offset="100%" stop-color="#000"/>
    </linearGradient>

    <!-- 蓝色发光效果 -->
    <filter id="glow" x="-50%" y="-50%" width="200%" height="200%">
      <feDropShadow dx="0" dy="0" stdDeviation="1" flood-color="#00faff" flood-opacity="0.6"/>
    </filter>

    <!-- 动态闪动 -->
    <style>
      .pulse {
        animation: pulse 2s infinite;
      }
      .glow-line {
        animation: flicker 1.5s infinite;
      }

      @keyframes pulse {
        0%, 100% { opacity: 0.4; r: 0.5; }
        50% { opacity: 1; r: 1; }
      }

      @keyframes flicker {
        0%, 100% { stroke-opacity: 0.2; }
        50% { stroke-opacity: 0.4; }
      }
    </style>
  </defs>

  <!-- 正面 -->
  <polygon points="8,8 24,8 24,24 8,24" fill="url(#blackGradient)" stroke="#00faff" stroke-width="0.3" filter="url(#glow)" />

  <!-- 右侧 -->
  <polygon points="24,8 28,4 28,20 24,24" fill="#0a0a0a" stroke="#00faff" stroke-width="0.3" filter="url(#glow)" />

  <!-- 顶面 -->
  <polygon points="8,8 12,4 28,4 24,8" fill="#1a1a1a" stroke="#00faff" stroke-width="0.3" filter="url(#glow)" />

  <!-- 内部交叉线（闪动） -->
  <line x1="8" y1="8" x2="24" y2="24" stroke="#00faff" stroke-width="0.2" class="glow-line"/>
  <line x1="24" y1="8" x2="8" y2="24" stroke="#00faff" stroke-width="0.2" class="glow-line"/>

  <!-- 顶面装饰 -->
  <line x1="12" y1="4" x2="24" y2="8" stroke="#00faff" stroke-width="0.2" stroke-opacity="0.3" />
  <line x1="12" y1="4" x2="8" y2="8" stroke="#00faff" stroke-width="0.2" stroke-opacity="0.3" />

  <!-- 顶部边框高亮 -->
  <polygon points="8,8 24,8 28,4 12,4" fill="none" stroke="#00faff" stroke-width="0.4" stroke-opacity="0.3" />

  <!-- 中心"脉冲感应器" -->
  <circle cx="16" cy="16" r="0.5" fill="#00faff" fill-opacity="0.7" class="pulse" />
</svg>

